External Loads File
version=1
nRows=62
nColumns=13
Range=5.000000e-03-10 seconds
endheader
time 	forceRightX 	forceRightY 	forceRightZ 	pointRightX 	pointRightY 	pointRightZ 	forceLeftX 	forceLeftY 	forceLeftZ 	pointLeftX 	pointLeftY 	pointLeftZ 		
7.505000 228.161924 538.401248 -0.000000 0.248883 0.156004 -0.148725 -13.225619 39.558280 -0.000000 0.321485 0.498501 -0.381724
7.510000 195.781647 516.822812 -0.000000 0.239893 0.158257 -0.148707 -20.181773 41.767963 -0.000000 0.330204 0.496861 -0.382243
7.515000 236.581152 461.208743 -0.000000 0.231046 0.161142 -0.148676 -21.107582 46.965058 -0.000000 0.338756 0.494531 -0.382277
7.520000 202.131620 438.686382 -0.000000 0.222419 0.164637 -0.148684 -29.540178 48.977562 -0.000000 0.347200 0.491575 -0.382483
7.525000 204.405934 398.543552 -0.000000 0.214063 0.168719 -0.148792 -34.368029 53.573290 -0.000000 0.355367 0.488011 -0.382850
7.530000 171.454416 377.041600 -0.000000 0.205897 0.173352 -0.148642 -44.400070 55.305715 -0.000000 0.363354 0.483798 -0.382987
7.535000 178.590662 338.715666 -0.000000 0.198091 0.178561 -0.148491 -48.723322 62.206297 -0.000000 0.370991 0.478963 -0.383050
7.540000 148.354631 322.380560 -0.000000 0.190614 0.184137 -0.148410 -59.997770 64.175740 -0.000000 0.378614 0.473557 -0.383421
7.545000 161.525383 288.447166 -0.000000 0.183572 0.190122 -0.148294 -62.215751 74.779957 -0.000000 0.385905 0.467480 -0.383610
7.550000 135.552084 278.975399 -0.000000 0.176990 0.196637 -0.148297 -74.066650 77.338001 -0.000000 0.392619 0.460892 -0.383571
7.555000 145.483991 254.626194 -0.000000 0.170764 0.203593 -0.148236 -75.604057 89.414327 -0.000000 0.398964 0.453801 -0.383527
7.560000 124.467243 249.923316 -0.000000 0.164996 0.210907 -0.148217 -87.602652 92.193450 -0.000000 0.404845 0.446233 -0.383388
7.565000 134.217611 230.991170 -0.000000 0.159699 0.218587 -0.148153 -87.868110 105.447617 -0.000000 0.410296 0.438223 -0.383305
7.570000 117.101771 227.959743 -0.000000 0.154798 0.226744 -0.148143 -99.901159 108.276744 -0.000000 0.415118 0.429897 -0.383406
7.575000 127.992301 209.950216 -0.000000 0.150403 0.235237 -0.148113 -97.869698 123.298997 -0.000000 0.419613 0.421063 -0.383331
7.580000 113.401691 206.440462 -0.000000 0.146556 0.244030 -0.147927 -109.883183 126.654784 -0.000000 0.423539 0.411930 -0.383298
7.585000 99.892060 201.641437 -0.000000 0.143176 0.253204 -0.148048 -122.130924 129.865792 -0.000000 0.426926 0.402461 -0.383205
7.590000 109.825095 184.115462 -0.000000 0.140371 0.262523 -0.148031 -118.038291 148.086917 -0.000000 0.429734 0.392670 -0.383138
7.595000 117.790966 166.276022 -0.000000 0.138021 0.272096 -0.148030 -111.621225 167.272631 -0.000000 0.432104 0.382513 -0.382971
7.600000 105.388222 162.192968 -0.000000 0.136255 0.281822 -0.147972 -124.112384 173.706081 -0.000000 0.433643 0.372314 -0.382974
7.605000 112.572611 145.003750 -0.000000 0.134894 0.291678 -0.148014 -113.936348 195.874084 -0.000000 0.434688 0.361886 -0.383139
7.610000 101.840438 141.572204 -0.000000 0.133950 0.301691 -0.147916 -126.470967 204.578202 -0.000000 0.435068 0.351282 -0.383277
7.615000 108.271753 125.894101 -0.000000 0.133079 0.311730 -0.148389 -113.095201 228.938908 -0.000000 0.435109 0.340625 -0.383790
7.620000 99.367477 123.677887 -0.000000 0.133333 0.321921 -0.148399 -126.949092 239.682460 -0.000000 0.434447 0.330076 -0.383221
7.625000 104.387513 110.883949 -0.000000 0.134063 0.332191 -0.148453 -114.209708 264.622919 -0.000000 0.433273 0.319469 -0.382867
7.630000 97.945171 109.604822 -0.000000 0.135331 0.342474 -0.148521 -129.508251 277.629124 -0.000000 0.431562 0.308936 -0.382871
7.635000 104.947342 96.714766 -0.000000 0.137257 0.352443 -0.148605 -110.692335 306.222248 -0.000000 0.429282 0.298568 -0.382854
7.640000 100.631975 96.390147 -0.000000 0.139462 0.362835 -0.148602 -127.382629 321.620634 -0.000000 0.426571 0.288343 -0.382778
7.645000 108.080386 83.742076 -0.000000 0.142184 0.372885 -0.148724 -103.670921 352.177103 -0.000000 0.423424 0.278271 -0.382630
7.650000 105.192317 84.071203 -0.000000 0.145482 0.382775 -0.148798 -121.433488 369.527337 -0.000000 0.419765 0.268406 -0.382504
7.655000 111.940281 71.698607 -0.000000 0.149418 0.392528 -0.148924 -94.193573 400.303595 -0.000000 0.415710 0.258768 -0.382297
7.660000 109.661706 72.240805 -0.000000 0.153659 0.402190 -0.149064 -113.223586 418.618234 -0.000000 0.411110 0.249412 -0.382140
7.665000 115.232145 59.304687 -0.000000 0.158588 0.411494 -0.149132 -81.310999 448.635730 -0.000000 0.406138 0.240341 -0.381933
7.670000 112.721939 59.764812 -0.000000 0.163711 0.420686 -0.149297 -102.478549 466.639706 -0.000000 0.400660 0.231593 -0.381743
7.675000 116.487552 45.793152 -0.000000 0.169269 0.429291 -0.149484 -64.877606 494.548866 -0.000000 0.394711 0.223182 -0.381582
7.680000 113.527542 45.554937 -0.000000 0.175338 0.437817 -0.149522 -86.487081 511.552155 -0.000000 0.388376 0.215170 -0.381541
7.685000 115.003689 31.191951 -0.000000 0.181740 0.446077 -0.149723 -44.985155 535.901389 -0.000000 0.381588 0.207530 -0.381472
7.690000 111.688649 30.628174 -0.000000 0.188542 0.453745 -0.149864 -68.024215 551.631399 -0.000000 0.374478 0.200296 -0.381290
7.695000 110.944849 18.274399 -0.000000 0.195493 0.460870 -0.150030 -32.978607 572.123920 -0.000000 0.366978 0.193518 -0.381145
7.700000 107.745558 17.428636 -0.000000 0.203990 0.467736 -0.149523 -57.033469 587.023253 -0.000000 0.359138 0.187233 -0.380986
7.705000 105.885834 4.116842 -0.000000 0.211269 0.474076 -0.149916 -12.005232 606.020710 -0.000000 0.350985 0.181444 -0.380820
7.710000 102.811124 3.449330 -0.000000 0.218650 0.479926 -0.150388 -37.421559 621.132576 -0.000000 0.342523 0.176193 -0.380685
7.715000 99.321722 -9.455843 -0.000000 0.226129 0.485517 -0.150611 14.732763 638.005138 -0.000000 0.333767 0.171514 -0.380552
7.720000 96.079897 -9.431504 -0.000000 0.234076 0.489637 -0.150600 -10.724049 653.737668 -0.000000 0.324819 0.167381 -0.380435
7.725000 90.832172 -20.001791 -0.000000 0.242075 0.494266 -0.151015 43.785001 667.593380 -0.000000 0.315653 0.163802 -0.380314
7.730000 87.058116 -18.243733 -0.000000 0.250092 0.497509 -0.151123 18.218726 683.161299 -0.000000 0.306329 0.160790 -0.380171
7.735000 80.053164 -25.753962 -0.000000 0.258194 0.500437 -0.151223 79.467293 691.813183 -0.000000 0.296939 0.158344 -0.380087
7.740000 75.193918 -21.291185 -0.000000 0.266391 0.502709 -0.151341 55.161499 705.000947 -0.000000 0.287415 0.156486 -0.380294
7.745000 67.055594 -22.956130 -0.000000 0.274569 0.504306 -0.151605 109.596398 706.547981 -0.000000 0.277897 0.155235 -0.380233
7.750000 60.417196 -14.840806 -0.000000 0.282954 0.505345 -0.151702 87.347844 713.861799 -0.000000 0.268416 0.154586 -0.380164
7.755000 51.294699 -11.283695 -0.000000 0.291294 0.505913 -0.151909 151.410587 703.068521 -0.000000 0.258498 0.154499 -0.381058
7.760000 43.023355 1.222694 -0.000000 0.299333 0.505739 -0.152072 129.621553 702.849475 -0.000000 0.249647 0.154925 -0.380948
7.765000 34.841956 11.429211 -0.000000 0.306840 0.504973 -0.152257 182.676416 681.662682 -0.000000 0.241257 0.155786 -0.380927
7.770000 25.709103 27.316091 -0.000000 0.314308 0.503717 -0.152330 159.862965 673.792690 -0.000000 0.234427 0.156995 -0.379491
7.775000 20.449224 41.594238 -0.000000 0.321167 0.502579 -0.152405 208.832880 642.482423 -0.000000 0.227496 0.158460 -0.379402
7.780000 11.831469 58.694071 -0.000000 0.327477 0.500674 -0.152437 184.348770 629.209102 -0.000000 0.221374 0.160057 -0.379292
7.785000 9.951496 74.403705 -0.000000 0.333148 0.499180 -0.152464 215.856789 595.697779 -0.000000 0.216117 0.161706 -0.379188
7.790000 2.863554 90.094454 -0.000000 0.338274 0.497649 -0.152668 191.001573 579.575164 -0.000000 0.211685 0.163290 -0.379097
7.795000 4.119040 103.927673 -0.000000 0.342302 0.496034 -0.152607 209.387816 547.616932 -0.000000 0.208141 0.164704 -0.378979
7.800000 -0.740410 115.946040 -0.000000 0.345740 0.495123 -0.152658 186.533976 530.361564 -0.000000 0.205441 0.165868 -0.378987
7.805000 2.158759 125.441087 -0.000000 0.348451 0.494222 -0.152680 193.665162 502.162186 -0.000000 0.203629 0.166757 -0.378914
7.810000 -0.350172 132.245429 -0.000000 0.350322 0.493561 -0.152844 174.572787 483.761778 -0.000000 0.202663 0.167337 -0.378882
